<svg width="207" height="61" viewBox="0 0 207 61" fill="none" xmlns="http://www.w3.org/2000/svg">
<path fill-rule="evenodd" clip-rule="evenodd" d="M107.981 10.6513C107.981 14.6881 110.917 15.1224 112.18 15.1224C112.582 15.1224 112.874 15.0702 112.884 15.0668L113.106 15.0251V13.104L112.784 13.1665L112.777 13.1675C112.742 13.1731 112.568 13.2012 112.315 13.2012C111.469 13.2012 110.046 12.8469 110.046 10.4846V5.01301H112.881V3.18916H110.046V0.059082H108.006V3.18916H106.503V5.01648H107.981V10.6513ZM68.6125 9.12275C68.6125 12.7044 71.2219 15.303 74.8131 15.303C77.8041 15.303 79.376 13.4375 79.4419 13.3576L79.5668 13.2047L78.5502 11.5719L78.3073 11.8603L78.3036 11.8644C78.2266 11.9512 76.9773 13.361 74.8825 13.361C72.8215 13.361 70.7361 11.902 70.7361 9.11928C70.7361 6.63189 72.4606 4.82888 74.8374 4.82888C75.7535 4.82888 77.1414 5.27703 77.1414 5.95099V6.8716H79.1227V5.59664C79.1227 3.64425 76.4925 2.91818 74.8374 2.91818C71.2878 2.91818 68.6125 5.58622 68.6125 9.12275ZM80.4655 9.12275C80.4655 12.7044 83.0679 15.303 86.6488 15.303C89.2824 15.303 90.9618 13.6772 91.0312 13.6077L91.1873 13.4514L90.1464 11.8255L89.9069 12.0757L89.9061 12.0765C89.8677 12.1155 88.6176 13.3854 86.7112 13.3854C84.4211 13.3854 82.7764 11.7769 82.6238 9.43888H91.2428L91.2671 9.19223C91.2706 9.17139 91.3157 8.68155 91.3157 8.40016C91.3157 5.66959 89.7682 2.91818 86.3087 2.91818C82.9222 2.91818 80.4655 5.52716 80.4655 9.12275ZM89.1748 7.68104H82.7383C83.1616 5.88498 84.5287 4.74203 86.2914 4.74203C87.5787 4.74203 88.9805 5.52021 89.1748 7.68104ZM103.949 15.032H105.802V13.1665H104.595C104.421 13.1665 104.369 13.1109 104.369 12.9372V7.57334C104.369 4.39811 103.082 2.91818 100.313 2.91818C98.2033 2.91818 96.8327 3.99165 96.0971 5.00258V4.71772C96.0971 3.70331 95.5454 3.18915 94.4524 3.18915H92.6064V5.06164H93.8244C93.9909 5.06164 94.0464 5.11723 94.0464 5.2805V15.032H96.1214V9.34161C96.1214 8.75103 96.1734 8.28899 96.2879 7.88948C96.7772 6.13163 98.356 4.90531 100.133 4.90531C101.947 4.90531 102.301 6.03089 102.301 7.97633V13.3923C102.301 14.5109 102.825 15.032 103.949 15.032ZM116.489 15.032H118.568H118.575V10.0017C118.575 9.22696 118.675 8.51132 118.873 7.8721C119.366 6.19068 120.521 5.14848 121.888 5.14848C122.128 5.14848 122.354 5.17928 122.4 5.18558L122.409 5.1867L122.725 5.23533V3.20652L122.516 3.15441C122.503 3.15093 122.18 3.07103 121.847 3.07103C120.469 3.07103 119.296 3.7971 118.547 5.06511V4.74202C118.547 3.69635 118.009 3.18915 116.902 3.18915H115.06V5.06163H116.271C116.437 5.06163 116.489 5.11374 116.489 5.28049V15.032ZM122.804 9.05327C122.804 12.5585 125.549 15.303 129.054 15.303C132.537 15.303 135.268 12.5585 135.268 9.05327C135.268 5.61401 132.527 2.91818 129.026 2.91818C125.539 2.91818 122.804 5.61401 122.804 9.05327ZM124.925 9.05674C124.925 6.70484 126.739 4.86015 129.054 4.86015C131.354 4.86015 133.155 6.70137 133.158 9.05674C133.158 11.4851 131.354 13.3888 129.054 13.3888C126.739 13.3888 124.925 11.4851 124.925 9.05674ZM68.1962 31.8844C68.1962 35.3862 70.9373 38.1307 74.4384 38.1307C77.9186 38.1307 80.6494 35.3862 80.6494 31.8844C80.6494 28.4417 77.9117 25.7458 74.4141 25.7458C70.9269 25.7458 68.1962 28.4417 68.1962 31.8844ZM70.3162 31.8844C70.3162 29.529 72.1275 27.6843 74.4384 27.6843C76.7354 27.6843 78.5363 29.529 78.5398 31.8844C78.5398 34.3127 76.7389 36.213 74.4384 36.213C72.1275 36.213 70.3162 34.3127 70.3162 31.8844ZM82.0061 31.9296C82.0061 35.6398 84.088 38.1307 87.1901 38.1307C89.1228 38.1307 90.2331 37.2378 90.8161 36.5361C90.8854 37.415 91.4302 37.8597 92.4295 37.8597H94.2685V35.9872H93.0576C92.8667 35.9872 92.832 35.9281 92.832 35.7683V23.1681C92.832 22.0495 92.3081 21.5284 91.1839 21.5284H89.3275V23.3939H90.5385C90.6981 23.3939 90.7571 23.453 90.7571 23.6163V27.2327C90.1949 26.5761 89.1297 25.7458 87.3497 25.7458C84.2025 25.7458 82.0061 28.2888 82.0061 31.9296ZM84.1158 31.933C84.1158 29.4213 85.5003 27.667 87.4815 27.667C89.7751 27.667 90.8022 29.807 90.7987 31.933C90.7987 35.0909 89.0534 36.2165 87.4156 36.2165C85.41 36.2165 84.1158 34.5351 84.1158 31.933ZM95.3372 31.8844C95.3372 35.3862 98.0784 38.1307 101.579 38.1307C105.063 38.1307 107.794 35.3862 107.794 31.8844C107.794 28.4417 105.053 25.7458 101.555 25.7458C98.068 25.7458 95.3372 28.4417 95.3372 31.8844ZM97.4573 31.8844C97.4573 29.529 99.2685 27.6843 101.579 27.6843C103.876 27.6843 105.677 29.529 105.677 31.8844C105.677 34.3127 103.876 36.213 101.579 36.213C99.2685 36.213 97.4573 34.3127 97.4573 31.8844ZM120.136 37.8597H122.01V35.9872H120.782C120.612 35.9872 120.563 35.9386 120.563 35.7683V30.408C120.563 27.2293 119.272 25.7493 116.503 25.7493C114.39 25.7493 113.02 26.8263 112.284 27.8372V27.5489C112.284 26.531 111.736 26.0168 110.646 26.0168H108.8V27.8858H110.011C110.181 27.8858 110.237 27.9414 110.237 28.1082V37.8597H112.308V32.1762C112.308 31.5995 112.36 31.1236 112.471 30.7206C112.978 28.9315 114.525 27.7295 116.319 27.7295C118.138 27.7295 118.491 28.8586 118.491 30.804V36.22C118.491 37.3386 119.012 37.8597 120.136 37.8597ZM124.019 33.479C124.019 37.5158 126.958 37.95 128.221 37.95C128.62 37.95 128.897 37.9049 128.908 37.9014L129.137 37.8632V35.9073L128.797 35.9942C128.797 35.9942 128.627 36.0358 128.349 36.0358C127.506 36.0358 126.09 35.685 126.09 33.3192V27.8407H128.922V26.0133H126.09V22.8937H124.04V26.0133H122.541V27.8407H124.019V33.479ZM130.063 31.8844C130.063 35.3862 132.804 38.1307 136.306 38.1307C139.796 38.1307 142.53 35.3862 142.53 31.8844C142.53 28.4417 139.786 25.7458 136.281 25.7458C132.794 25.7458 130.063 28.4417 130.063 31.8844ZM132.18 31.8844C132.18 29.529 133.991 27.6843 136.306 27.6843C138.61 27.6843 140.414 29.529 140.414 31.8844C140.414 34.3127 138.61 36.213 136.306 36.213C133.991 36.213 132.18 34.3127 132.18 31.8844ZM146.24 37.8597H148.103V35.9872H146.892C146.698 35.9872 146.663 35.9282 146.663 35.7683V23.1681C146.663 22.0495 146.143 21.5284 145.025 21.5284H143.162V23.3939H144.38C144.54 23.3939 144.598 23.453 144.598 23.6163V36.22C144.598 37.3386 145.119 37.8597 146.24 37.8597ZM148.977 31.8844C148.977 35.3862 151.719 38.1307 155.22 38.1307C158.707 38.1307 161.441 35.3862 161.441 31.8844C161.441 28.4417 158.7 25.7458 155.199 25.7458C151.712 25.7458 148.977 28.4417 148.977 31.8844ZM151.097 31.8844C151.097 29.529 152.909 27.6843 155.22 27.6843C157.52 27.6843 159.321 29.529 159.321 31.8844C159.321 34.3127 157.52 36.213 155.22 36.213C152.909 36.213 151.097 34.3127 151.097 31.8844ZM154.061 24.7453H156.014L158.349 21.5284H155.962L154.061 24.7453ZM164.234 41.6533C165.407 42.2508 166.757 42.5809 168.03 42.5809C170.789 42.5809 173.738 41.1982 173.738 37.3143V28.1012C173.738 27.9275 173.787 27.8789 173.96 27.8789H175.147V26.0099H173.315C172.427 26.0099 171.913 26.3851 171.785 27.125C171.261 26.5136 170.209 25.7424 168.242 25.7424C165.102 25.7424 163.075 28.0908 163.075 31.7246C163.075 35.2994 165.254 37.7937 168.381 37.7937C169.796 37.7937 170.9 37.3282 171.67 36.4145V37.3629C171.67 40.2116 169.366 40.6389 167.992 40.6389C166.467 40.6389 165.162 39.9324 165.084 39.8904L165.081 39.8885L164.821 39.7426L164.002 41.5352L164.234 41.6533ZM165.195 31.7038C165.195 29.1504 166.361 27.6844 168.398 27.6844C170.615 27.6844 171.691 29.0079 171.691 31.7246C171.691 34.4413 170.622 35.876 168.596 35.876C166.531 35.876 165.195 34.2398 165.195 31.7038ZM179.71 37.8597H181.573H181.577V35.9872H180.352C180.182 35.9872 180.137 35.9386 180.137 35.7683V27.6635C180.137 26.5379 179.616 26.0168 178.502 26.0168H176.629V27.8858H177.843C178.006 27.8858 178.065 27.9414 178.065 28.1082V36.22C178.065 37.3386 178.589 37.8597 179.71 37.8597ZM178.016 24.0019H180.046V21.5249H178.016V24.0019ZM182.777 31.9539C182.777 35.5321 185.383 38.1307 188.974 38.1307C191.955 38.1307 193.544 36.2721 193.6 36.1956L193.728 36.0428L192.701 34.4065L192.461 34.6949C192.451 34.7088 191.195 36.1956 189.04 36.1956C186.976 36.1956 184.887 34.7366 184.887 31.9539C184.887 29.4665 186.615 27.6635 188.995 27.6635C189.935 27.6635 191.299 28.0977 191.299 28.7787V29.7027H193.284V28.4208C193.284 26.4719 190.657 25.7458 188.999 25.7458C185.452 25.7458 182.777 28.4139 182.777 31.9539ZM194.533 31.8844C194.533 35.3862 197.274 38.1307 200.775 38.1307C204.266 38.1307 207 35.3862 206.997 31.8844C206.997 28.4417 204.252 25.7458 200.751 25.7458C197.264 25.7458 194.533 28.4417 194.533 31.8844ZM196.66 31.8844C196.66 29.529 198.468 27.6843 200.775 27.6843C203.083 27.6843 204.887 29.529 204.887 31.8844C204.887 34.3127 203.079 36.213 200.775 36.213C198.468 36.213 196.66 34.3127 196.66 31.8844ZM68.1962 57.3384C68.1962 59.7146 70.2607 60.9583 72.301 60.9583C73.8451 60.9583 74.8478 60.2635 75.4204 59.6764C75.5661 59.527 75.698 59.3707 75.809 59.2213C75.8576 60.208 76.3885 60.6874 77.4225 60.6874H79.2441V58.8218H78.0262C77.8527 58.8218 77.8041 58.7697 77.8041 58.596V53.187C77.8041 51.2068 77.3184 48.577 73.1129 48.577C71.7458 48.577 69.1608 49.0321 69.1608 50.7587V52.1135H71.1629V51.1165C71.1629 50.6128 72.419 50.4043 73.0921 50.4043C75.004 50.4043 75.7084 51.1339 75.7396 53.18H75.3822C70.6146 53.18 68.1962 54.5766 68.1962 57.3384ZM70.3128 57.2516C70.3128 55.2123 72.8631 54.9379 75.3579 54.9379H75.7361V55.1845C75.7361 57.0779 74.4557 59.1102 72.5508 59.1102C71.0137 59.1102 70.3128 58.1479 70.3128 57.2516ZM98.585 60.6908H100.448V58.8218H99.2373C99.0638 58.8218 99.0152 58.7732 99.0152 58.596V53.2287C99.0152 50.0986 97.7002 48.577 94.9937 48.577C93.3247 48.577 91.7286 49.5254 90.8958 50.9532C90.3927 49.3552 89.2095 48.577 87.2976 48.577C85.8611 48.577 84.3552 49.4247 83.4843 50.6336V50.3765C83.4843 49.3586 82.936 48.8445 81.8534 48.8445H80.0005V50.7205H81.2185C81.3885 50.7205 81.4475 50.7795 81.4475 50.9428V60.6908H83.512V55.0699C83.512 54.5175 83.5675 54.052 83.6855 53.6386C84.0915 52.1344 85.3337 50.5155 87.0929 50.5155C88.8486 50.5155 89.2026 51.7001 89.2026 53.6108V60.6908H91.274V55.0699C91.274 54.4376 91.333 53.9443 91.4684 53.5066C91.8674 52.0197 93.1304 50.5155 94.7682 50.5155C96.3331 50.5155 96.9438 51.384 96.9438 53.6108V59.0511C96.9438 60.1697 97.4642 60.6908 98.585 60.6908ZM101.375 54.7781C101.375 58.3598 103.97 60.9583 107.551 60.9583C110.188 60.9583 111.868 59.3325 111.933 59.2596L112.093 59.1032L111.052 57.4843L110.813 57.7345L110.806 57.7413C110.7 57.8431 109.462 59.0407 107.617 59.0407C105.327 59.0407 103.675 57.4322 103.519 55.0942H112.149L112.169 54.8441C112.169 54.8441 112.211 54.3404 112.211 54.059C112.211 51.3319 110.667 48.577 107.218 48.577C103.831 48.577 101.375 51.186 101.375 54.7781ZM110.088 53.3364H103.647C104.067 51.5438 105.431 50.4043 107.197 50.4043C108.491 50.4043 109.9 51.1825 110.088 53.3364ZM114.897 60.6908H116.954V55.6605C116.954 54.9101 117.058 54.1806 117.26 53.5379C117.766 51.8565 118.922 50.8108 120.275 50.8108C120.511 50.8108 120.737 50.8443 120.783 50.8512H120.783L120.792 50.8525L121.111 50.9046V48.8584L120.9 48.8098C120.886 48.8063 120.577 48.7368 120.23 48.7368C118.859 48.7368 117.686 49.4629 116.934 50.7344V50.4043C116.934 49.3552 116.399 48.8445 115.299 48.8445H113.46V50.7205H114.671C114.834 50.7205 114.897 50.783 114.897 50.9428V60.6908ZM125.407 60.6908H127.277H127.281V58.8218H126.056C125.903 58.8218 125.841 58.7905 125.841 58.596V50.4946C125.841 49.3691 125.32 48.8445 124.199 48.8445H122.329V50.7204H123.547C123.707 50.7204 123.766 50.7795 123.766 50.9428V59.0511C123.766 60.1697 124.286 60.6908 125.407 60.6908ZM123.727 46.833H125.747V44.3561H123.727V46.833ZM128.096 54.7781C128.096 58.3598 130.702 60.9583 134.293 60.9583C137.257 60.9583 138.831 59.1286 138.92 59.0254L138.922 59.0233L139.047 58.8705L138.027 57.2412L137.787 57.526C137.777 57.5399 136.51 59.0198 134.352 59.0198C132.291 59.0198 130.209 57.5642 130.209 54.7781C130.209 52.2942 131.937 50.4912 134.317 50.4912C135.254 50.4912 136.621 50.9289 136.621 51.6167V52.5374H138.606V51.2485C138.606 49.3031 135.976 48.577 134.317 48.577C130.771 48.577 128.096 51.2416 128.096 54.7781ZM140.306 57.3384C140.306 59.7146 142.378 60.9583 144.425 60.9583C146.264 60.9583 147.354 59.9648 147.923 59.2005C147.964 60.201 148.495 60.6874 149.536 60.6874H151.354V58.8218H150.147C149.973 58.8218 149.921 58.7697 149.921 58.596V53.187C149.921 51.2068 149.435 48.577 145.227 48.577C143.859 48.577 141.278 49.0321 141.278 50.7587V52.1135H143.276V51.1165C143.276 50.6128 144.529 50.4043 145.199 50.4043C147.107 50.4043 147.812 51.1339 147.843 53.18H147.496C142.725 53.18 140.306 54.5766 140.306 57.3384ZM142.426 57.2516C142.426 55.2123 144.977 54.9379 147.472 54.9379H147.85V55.1845C147.85 57.0779 146.569 59.1102 144.668 59.1102C143.127 59.1102 142.426 58.1479 142.426 57.2516ZM163.252 60.6908H165.123V58.8183H163.905C163.728 58.8183 163.679 58.7697 163.679 58.5925V53.2252C163.679 50.0534 162.392 48.5735 159.619 48.5735C157.517 48.5735 156.139 49.6782 155.407 50.6718V50.373C155.407 49.3552 154.855 48.841 153.766 48.841H151.92V50.717H153.138C153.297 50.717 153.353 50.7726 153.353 50.9393V60.6874H155.431V55.0039C155.431 54.4064 155.487 53.9443 155.598 53.5518C156.087 51.787 157.669 50.5572 159.446 50.5572C161.264 50.5572 161.618 51.6897 161.618 53.6386V59.0511C161.618 60.1697 162.139 60.6908 163.252 60.6908ZM165.733 54.7086C165.733 58.2139 168.478 60.9583 171.976 60.9583C175.463 60.9583 178.193 58.2139 178.19 54.7086C178.19 51.2693 175.449 48.577 171.951 48.577C168.464 48.577 165.733 51.2693 165.733 54.7086ZM167.846 54.7086C167.846 52.3567 169.661 50.512 171.976 50.512C174.276 50.512 176.08 52.3567 176.08 54.7086C176.08 57.1404 174.276 59.0442 171.976 59.0442C169.661 59.0442 167.846 57.1404 167.846 54.7086Z" fill="#009FE3"/>
<path d="M42.6408 19.9096C43.5429 19.9027 44.3028 19.5726 44.7782 18.9786C45.1564 18.5096 45.3334 17.8947 45.2778 17.2485C45.2778 17.2103 45.257 17.179 45.2258 17.1547C45.1946 17.1339 45.1564 17.1269 45.1217 17.1374C44.3098 17.3562 43.4701 17.4674 42.62 17.4674C41.7768 17.4674 40.9371 17.3562 40.1286 17.1408C40.0939 17.1304 40.0557 17.1374 40.0245 17.1582C39.9933 17.1825 39.9759 17.2173 39.9725 17.2555C39.9378 17.8947 40.1321 18.5061 40.5276 18.982C41.0099 19.5692 41.7802 19.9061 42.6408 19.9096Z" fill="#009FE3"/>
<path d="M56.6069 0H4.32689C1.93617 0 0 1.93502 0 4.32861V56.6679C0 59.0615 1.93617 61 4.32689 61H56.6034C58.9907 61 60.9234 59.0615 60.9234 56.6679V4.32861C60.9268 1.93502 58.9907 0 56.6069 0ZM37.2556 18.572C37.2556 17.5923 37.5193 16.769 38.019 16.1228C38.8552 15.039 40.3577 14.4484 42.4083 14.4484C43.3938 14.4484 44.1606 14.5804 44.7886 14.7506C44.7921 14.7506 44.8615 14.768 44.8927 14.768C45.0662 14.768 45.2085 14.6394 45.2085 14.4796C45.2085 14.4692 45.205 14.4449 45.205 14.431C45.0697 13.6841 44.6186 13.1977 43.8518 12.9823C43.8483 12.9823 43.8448 12.9789 43.8414 12.9789C43.772 12.9615 43.6991 12.9441 43.6262 12.9302C43.6158 12.9268 43.602 12.9233 43.5881 12.9233C43.5222 12.9129 43.4562 12.899 43.3868 12.892C43.3695 12.8885 43.3487 12.8851 43.3313 12.8851C43.2619 12.8781 43.1925 12.8712 43.1196 12.8677C43.0988 12.8642 43.0815 12.8642 43.0607 12.8642C42.9704 12.8573 42.8768 12.8573 42.7796 12.8573C42.7727 12.8573 42.7692 12.8573 42.7657 12.8573C42.6616 12.8573 42.561 12.8573 42.4604 12.8642C42.4326 12.8677 42.4049 12.8677 42.3806 12.8677C42.1724 12.8747 41.9746 12.892 41.7803 12.9129C41.7629 12.9129 41.7456 12.9163 41.7282 12.9198C41.527 12.9441 41.3327 12.9754 41.1453 13.0136C41.1384 13.0136 41.1314 13.0136 41.128 13.0171C40.9718 13.0484 40.8191 13.0831 40.6665 13.1248C40.5971 13.1421 40.5242 13.163 40.4513 13.1873C40.3611 13.2116 40.2709 13.2359 40.1807 13.2637C40.1738 13.2672 40.1633 13.2672 40.1529 13.2707C40.1529 13.2707 40.1495 13.2707 40.1495 13.2742C40.0662 13.295 39.976 13.3089 39.8858 13.3089C39.452 13.3089 39.0877 13.0484 38.9663 12.6871L38.3278 10.7347H38.3243C38.2966 10.6478 38.3382 10.554 38.4215 10.5158C39.7921 9.91133 41.1418 9.50834 43.2827 9.50834C45.1807 9.50834 46.6277 9.99123 47.5784 10.9431C48.4979 11.8637 48.9663 13.2359 48.9663 15.0146V22.185C48.9663 22.2857 48.89 22.3656 48.7894 22.3656H45.375C45.2779 22.3656 45.1946 22.2857 45.1946 22.185V21.2887C44.2578 22.1676 43.1196 22.5949 41.6727 22.5949C39.0322 22.5949 37.2591 21.0038 37.2591 18.6345V18.572H37.2556ZM30.0245 9.49792C31.8809 9.49792 33.5915 10.1684 34.8441 11.3843C36.0828 12.5898 36.7664 14.2643 36.7664 16.0186C36.7664 19.6767 33.8309 22.5428 30.0245 22.5428C28.1681 22.5428 26.4089 21.8723 25.1563 20.6564C23.9176 19.4509 23.234 17.773 23.234 16.0186C23.2375 12.3605 26.2181 9.49792 30.0245 9.49792ZM11.6135 16.0186C11.6135 14.2643 12.2693 12.628 13.4595 11.419C14.6739 10.1788 16.3499 9.49792 18.175 9.49792C20.3298 9.49792 21.8704 10.1476 23.1681 11.6032C23.2271 11.6726 23.2271 11.7734 23.1646 11.8429L21.6552 13.4687L21.5546 13.5625C21.3811 13.7188 21.1486 13.8265 20.8884 13.8265C20.6421 13.8265 20.42 13.7397 20.25 13.5972C20.2465 13.5938 20.243 13.5903 20.2361 13.5868C19.6705 13.1213 19.039 12.833 18.1542 12.833C16.5997 12.833 15.3783 14.2121 15.3783 15.9769V16.0221C15.3783 17.8981 16.5754 19.2112 18.2895 19.2112C19.1674 19.2112 19.8162 18.909 20.4339 18.4192C20.4373 18.4192 20.4373 18.4157 20.4408 18.4157C20.6074 18.2906 20.8155 18.2211 21.0411 18.2211C21.2874 18.2211 21.5095 18.308 21.6795 18.4469C21.6865 18.4539 21.6899 18.4574 21.6969 18.4608C21.7108 18.4713 21.7212 18.4852 21.7351 18.4956L21.7698 18.5338L23.2305 20.0137C23.2965 20.0797 23.2999 20.1874 23.234 20.2569C22.1514 21.445 20.7843 22.5428 18.1264 22.5428C16.329 22.5428 14.6705 21.8688 13.463 20.646C12.2693 19.4405 11.6135 17.8147 11.6135 16.0638V16.0186ZM45.7081 46.701C42.3389 50.9045 36.9607 53.2391 30.5658 53.2808H30.5623C24.4658 53.2773 19.0008 50.8837 15.5553 46.7149C12.7725 43.366 11.3776 39.0235 11.6448 34.4795C11.6621 34.2189 11.7974 33.9723 12.0126 33.8125C12.2346 33.6561 12.5088 33.6005 12.7655 33.67C18.5081 35.2125 24.4415 35.9976 30.4131 35.9976C36.4333 35.9976 42.3806 35.2125 48.1266 33.6631C48.3799 33.5971 48.654 33.6492 48.8657 33.7951C49.0808 33.9479 49.2231 34.1946 49.2439 34.4517C49.6395 39.0235 48.3834 43.3764 45.7081 46.701Z" fill="#009FE3"/>
<path d="M30.0245 19.2079C31.7767 19.2079 33.0016 17.8634 33.0016 16.0118C33.0016 14.1949 31.7455 12.8296 30.0245 12.8296C28.2687 12.8296 26.9988 14.1601 26.9988 16.0118C26.9988 17.8322 28.3 19.2079 30.0245 19.2079Z" fill="#009FE3"/>
</svg>
